<svg xmlns="http://www.w3.org/2000/svg" viewBox="0 0 700 900">
<defs>
  <linearGradient id="body" x1="0" y1="0" x2="0" y2="1"><stop stop-color="#245d78"/><stop offset=".55" stop-color="#12394f"/><stop offset="1" stop-color="#081d2b"/></linearGradient>
  <linearGradient id="sleeve" x1="0" y1="0" x2="1" y2="1"><stop stop-color="#2c6b86"/><stop offset="1" stop-color="#0c2c3e"/></linearGradient>
  <filter id="shadow"><feGaussianBlur stdDeviation="8"/></filter>
</defs>
<ellipse cx="350" cy="850" rx="220" ry="24" fill="#000" opacity=".18" filter="url(#shadow)"/>
<path d="M190 165 72 250 105 405 215 348 205 790 495 790 485 348 595 405 628 250 510 165 432 122 268 122Z" fill="url(#body)"/>
<path d="M190 165 72 250 105 405 215 348 205 790 495 790 485 348 595 405 628 250 510 165" fill="none" stroke="#b9edf5" stroke-width="8" opacity=".75"/>
<path d="M268 122 Q350 206 432 122" fill="#071620" stroke="#d5f8fc" stroke-width="9"/>
<path d="M350 192 350 760" stroke="#9ddcea" stroke-width="4" opacity=".35"/>
<path d="M205 355 Q255 380 287 370" fill="none" stroke="#7fc5d7" stroke-width="5" opacity=".45"/>
<path d="M495 355 Q445 380 413 370" fill="none" stroke="#7fc5d7" stroke-width="5" opacity=".45"/>
<g transform="translate(260 300)"><circle cx="0" cy="0" r="34" fill="#0a2738" stroke="#d4f7fb" stroke-width="6"/><path d="M-15 4 Q0-18 17-3 Q6 0-3 14 Q10 10 21 17" fill="none" stroke="#9de3ef" stroke-width="5" stroke-linecap="round"/></g>
<path d="M235 675 Q350 705 465 675" fill="none" stroke="#6fb9ce" stroke-width="4" opacity=".28"/>
</svg>